<svg xmlns="http://www.w3.org/2000/svg" version="1.1" xmlns:xlink="http://www.w3.org/1999/xlink" xmlns:svgjs="http://svgjs.dev/svgjs" width="100%" height="100%" viewBox="0 0 1000 600"><rect width="1000" height="600" x="0" y="0" fill="#f8bbd0"/><g><circle r="166.66666666666666" cx="449.2157999674479" cy="335.667927501152" fill="#ffffff" transform="matrix(0.8516201574499298,0,0,0.8516201574499298,-17.156354768095383,14.13840749697222)"/><path d="M355.61681768005457 279.45769269111173L355.61681768005457 279.45769269111173Q341.7550119197808 295.19529326756924 334.60155711230016 313.4763444422421Q327.4481023048195 331.75739561691495 327.4481023048195 352.9952081120132L327.4481023048195 352.9952081120132Q327.4481023048195 364.18639074416075 329.3238971210033 375.5683321711745Q331.2314850696648 386.9820667306659 335.2692128943317 398.71373261493426L335.2692128943317 398.71373261493426Q326.780446522788 398.9362845422781 317.59223123673496 400.2715961063411L317.59223123673496 400.2715961063411Q309.7711206472228 401.51152827297113 300.2649740363929 403.896013208798Q290.75882742556297 406.3122912771026 281.6024052719877 410.6679504265464L281.6024052719877 410.6679504265464Q274.5761229944178 392.3551061193959 264.2751480716456 375.69550470108527Q254.0059662813511 359.03590328277465 240.93898883301972 344.06133788578177L240.93898883301972 344.06133788578177Q242.27430039708275 375.69550470108527 233.30863703837366 409.4280182599164L233.30863703837366 409.4280182599164Q212.9928253851285 403.06939176437805 195.9834995095633 403.06939176437805L195.9834995095633 403.06939176437805Q190.51508072340027 403.06939176437805 184.02928169795115 403.73704754640954Q177.54348267250197 404.4047033284411 170.16747593767747 405.6446354950711L170.16747593767747 405.6446354950711Q184.1564542278619 389.87524178613586 191.46887469773105 371.5623974789853Q198.7812951676002 353.2177600393571 198.7812951676002 331.4394642921381L198.7812951676002 331.4394642921381Q198.7812951676002 324.38138888209045 197.89108745822483 316.84641648487747Q197.00087974884946 309.27965095518675 195.09329180018793 301.0134365109869L195.09329180018793 301.0134365109869Q188.1623889200511 295.7675696521677 181.16789977495887 290.9032203830808Q174.20520376234433 286.038871113994 166.92457642495287 281.36528063977323L166.92457642495287 281.36528063977323Q177.22555134772506 282.25548834914866 185.87328338165725 281.905763891894Q194.55280854806716 281.58783256711706 202.7554367273117 279.9663828107548Q210.95806490655622 278.3449330543925 219.41503814562225 275.3563786014895Q227.84021825221063 272.39961728106414 237.91864124763896 267.8214062042765L237.91864124763896 267.8214062042765L285.29040863939997 345.174097522501Q284.6227528573684 339.80105813377105 284.4002009300246 334.42801874504113Q284.17764900268077 329.0867724887889 284.17764900268077 323.809112497492L284.17764900268077 323.809112497492Q284.17764900268077 307.499235536436 287.99282490000377 291.7934280924562Q291.7762076648491 276.0876206484764 300.3921465663036 260.6679513967958L300.3921465663036 260.6679513967958Q313.363744617202 269.15671776833955 326.875825920221 273.7985151100826Q340.38790722324006 278.44031245182555 355.61681768005457 279.45769269111173ZM498.7812932271014 272.8447211357518L499.89405286382055 272.8447211357518Q495.9834975690644 275.9922412510433 492.51804612899605 279.3941064261563Q489.0525946889277 282.7959716012694 485.93686770611384 286.6111474985924L485.93686770611384 286.6111474985924Q496.4286014237522 288.61411484468704 505.83936863714894 293.0333602590862Q515.2183427180681 297.4526056734854 522.149245598205 304.1609566262784Q529.0801484783418 310.8693075790714 533.1496694354863 319.7395915403474Q537.2191903926309 328.64166863410117 537.2191903926309 339.48312680899414L537.2191903926309 339.48312680899414Q537.2191903926309 351.75527594538323 533.1496694354863 361.6747332784231Q529.0801484783418 371.5623974789853 521.8631074059057 379.3199218035421Q514.6460663334697 387.077446128099 504.8219883978628 392.73662370912814Q494.9979104622561 398.3640081576796 483.4570033728538 402.02021839261414Q471.94788941592935 405.6446354950711 459.2306364248526 407.42505091382185Q446.48159030129807 409.2054663325726 433.5099922503998 409.2054663325726L433.5099922503998 409.2054663325726Q428.9317811736122 409.2054663325726 424.00384563956993 409.0465006701841Q419.07591010552767 408.88753500779563 414.4659058962623 408.537810550541Q409.8241085545193 408.21987922576415 405.8499669948078 407.5840165762103Q401.8758254350963 406.97994705913413 399.20520230697025 406.08973934975876L399.20520230697025 406.08973934975876Q402.320929289784 403.5144956190657 405.1823112127763 400.907458755895Q408.01190000329086 398.26862876024654 410.3645918066401 395.5980056321204L410.3645918066401 395.5980056321204Q399.745685559091 393.5632451535481 390.4302977431272 389.55731046135895Q381.0831167946858 385.51958263669206 374.0568345171159 379.19274927363136Q366.9987591070683 372.89770904304834 362.9292381499237 364.34535640654923Q358.8279240603014 355.7930037700501 358.8279240603014 344.7289936678133L358.8279240603014 344.7289936678133Q358.8279240603014 331.75739561691495 363.59689393195526 321.29745503175434Q368.3340706711313 310.8693075790714 376.60028511533125 302.69847253230455Q384.8982926920088 294.5276374855377 396.05768219167874 288.7412873745978Q407.24886482382624 282.92314413118015 420.0932903448138 279.10796823385715Q432.93771586580135 275.3245854690118 446.8631078910305 273.51237691778334Q460.7884999162595 271.7319614990326 474.5231331466224 271.7319614990326L474.5231331466224 271.7319614990326Q480.2141038601293 271.7319614990326 486.223005898413 272.0180996913318Q492.2001148042191 272.304237883631 498.7812932271014 272.8447211357518L498.7812932271014 272.8447211357518ZM488.7346633641507 331.6620162194819L488.7346633641507 331.6620162194819Q488.7346633641507 322.15586960865204 484.6333492745284 316.1151744378905Q480.5638283173839 310.0744792671291 473.8554773645909 306.5136484296276L473.8554773645909 306.5136484296276Q472.61554519796084 309.40682348509756 471.5027855612417 312.49075733543367Q470.39002592452243 315.5428980532921 469.499818215147 318.7857975660167L469.499818215147 318.7857975660167Q461.67870762563484 316.56027829257823 456.36925450186027 315.76544998063594Q451.0598013780857 315.0024148011713 447.4671774081065 315.0024148011713L447.4671774081065 315.0024148011713Q440.44089513053666 315.0024148011713 433.287440323056 317.35510660452053Q426.1339855155752 319.676005275392 420.44301480206843 324.0952506897912Q414.7202509560839 328.5144961041904 411.095833853627 334.8413294672511Q407.4714167511701 341.13636969783414 407.4714167511701 349.0846528172571L407.4714167511701 349.0846528172571Q407.4714167511701 356.68321147942544 411.31838578097086 363.01004484248614Q415.1653548107716 369.30508507306916 421.4286019088769 374.6781244617991L421.4286019088769 374.6781244617991Q422.445982148163 371.21267302173067 422.95467226780613 367.65184218422917Q423.46336238744914 364.05921821425 423.68591431479297 360.27583544940467L423.68591431479297 360.27583544940467Q431.9521287589929 364.05921821425 438.3107552545313 365.52170230822384Q444.66938175006965 366.9841864021977 449.5019378866789 366.9841864021977L449.5019378866789 366.9841864021977Q456.8779446215034 366.9841864021977 463.90422689907336 364.56790833389306Q470.9623023091209 362.1516302655885 476.4943073602393 357.57341918880087Q482.0263124113577 352.9952081120132 485.3645913215154 346.44582282160866Q488.7346633641507 339.9282306636818 488.7346633641507 331.6620162194819ZM731.5070229638064 279.45769269111173L731.5070229638064 279.45769269111173Q717.6452172035326 295.19529326756924 710.491762396052 313.4763444422421Q703.3383075885713 331.75739561691495 703.3383075885713 352.9952081120132L703.3383075885713 352.9952081120132Q703.3383075885713 364.18639074416075 705.2141024047551 375.5683321711745Q707.1216903534166 386.9820667306659 711.1594181780836 398.71373261493426L711.1594181780836 398.71373261493426Q702.6706518065398 398.9362845422781 693.4824365204868 400.2715961063411L693.4824365204868 400.2715961063411Q685.6613259309745 401.51152827297113 676.1551793201447 403.896013208798Q666.6808258417924 406.3122912771026 657.4926105557396 410.6679504265464L657.4926105557396 410.6679504265464Q650.4663282781696 392.3551061193959 640.1653533553974 375.69550470108527Q629.8961715651029 359.03590328277465 616.8291941167715 344.06133788578177L616.8291941167715 344.06133788578177Q618.1645056808346 375.69550470108527 609.1988423221255 409.4280182599164L609.1988423221255 409.4280182599164Q588.8830306688802 403.06939176437805 571.8737047933151 403.06939176437805L571.8737047933151 403.06939176437805Q566.4052860071522 403.06939176437805 559.919486981703 403.73704754640954Q553.4336879562538 404.4047033284411 546.0576812214293 405.6446354950711L546.0576812214293 405.6446354950711Q560.0466595116137 389.87524178613586 567.3590799814829 371.5623974789853Q574.671500451352 353.2177600393571 574.671500451352 331.4394642921381L574.671500451352 331.4394642921381Q574.671500451352 324.38138888209045 573.7812927419767 316.84641648487747Q572.8910850326013 309.27965095518675 570.9834970839397 301.0134365109869L570.9834970839397 301.0134365109869Q564.0525942038029 295.7675696521677 557.0581050587107 290.9032203830808Q550.0954090460962 286.038871113994 542.8147817087047 281.36528063977323L542.8147817087047 281.36528063977323Q553.1157566314769 282.25548834914866 561.7634886654091 281.905763891894Q570.4430138318189 281.58783256711706 578.6456420110635 279.9663828107548Q586.8482701903081 278.3449330543925 595.3052434293741 275.3563786014895Q603.7304235359625 272.39961728106414 613.8088465313907 267.8214062042765L613.8088465313907 267.8214062042765L661.1806139231519 345.174097522501Q660.5129581411203 339.80105813377105 660.2904062137764 334.42801874504113Q660.0678542864326 329.0867724887889 660.0678542864326 323.809112497492L660.0678542864326 323.809112497492Q660.0678542864326 307.499235536436 663.8830301837556 291.7934280924562Q667.666412948601 276.0876206484764 676.2823518500554 260.6679513967958L676.2823518500554 260.6679513967958Q689.2539499009537 269.15671776833955 702.7660312039728 273.7985151100826Q716.2781125069919 278.44031245182555 731.5070229638064 279.45769269111173Z " fill="#37474f" transform="matrix(0.8516201574499298,0,0,0.8516201574499298,-17.156354768095383,14.13840749697222)"/><path d="M808.1582232839068 293.1130918546104L809.0244169725937 293.1130918546104Q805.9803648666367 295.5631825740393 803.2827902361544 298.2112604223109Q800.585215605672 300.85933827058244 798.1598732773485 303.8291452032235L798.1598732773485 303.8291452032235Q806.3268423421115 305.38829384286004 813.6523661092926 308.8283202065026Q820.9531414853686 312.2683465701451 826.3482907463332 317.4902570933723Q831.7434400072977 322.71216761659946 834.9112340687815 329.61696873498994Q838.0790281302653 336.5465182444857 838.0790281302653 344.9857196114073L838.0790281302653 344.9857196114073Q838.0790281302653 354.53859857806935 834.9112340687815 362.2600966029361Q831.7434400072977 369.95684623669746 826.125555226385 375.9954536664009Q820.5076704454724 382.0340610961043 812.8604175939217 386.43927471285525Q805.1884163512657 390.81973993850073 796.229498771132 393.66580491561507Q787.2705811909981 396.48712150162413 777.3464763577559 397.87303140352327Q767.4471199156192 399.2589413054224 757.3497763446396 399.2589413054224L757.3497763446396 399.2589413054224Q753.7860080254703 399.2589413054224 749.9500074041423 399.1351993498957Q746.1140067828143 399.01145739436896 742.5007416814343 398.73922509221023Q738.9122249711597 398.4917411811568 735.8186760829919 397.99677335905Q732.7251271948242 397.5265539280485 730.6462623419754 396.8335989770989L730.6462623419754 396.8335989770989Q733.0716046702989 394.82897929756615 735.2989598697798 392.7996112269281Q737.5015666781553 390.74549476518473 739.3329476199506 388.666629912336L739.3329476199506 388.666629912336Q731.0669849907663 387.08273288159415 723.8157063969011 383.96443560232103Q716.5396794119306 380.8213899319426 711.0702849776499 375.8964601019795Q705.5761421522641 370.9962786631218 702.4083480907802 364.3389614557848Q699.2158056381911 357.68164424844775 699.2158056381911 349.06920414378874L699.2158056381911 349.06920414378874Q699.2158056381911 338.9718605728092 702.9280643039924 330.8296398991517Q706.6155745786884 322.71216761659946 713.0501562660772 316.3518311025266Q719.5094863445715 309.9914945884537 728.1961716225467 305.4872874072814Q736.9076052916271 300.95833183500383 746.9059552981853 297.98852490236277Q756.9043053047434 295.0434663608271 767.7441006088832 293.63280806782257Q778.5838959130231 292.2468981659234 789.2752008705309 292.2468981659234L789.2752008705309 292.2468981659234Q793.705162878387 292.2468981659234 798.3826087972966 292.46963368587154Q803.0353063251009 292.6923692058196 808.1582232839068 293.1130918546104L808.1582232839068 293.1130918546104ZM800.3377316946187 338.8976153994932L800.3377316946187 338.8976153994932Q800.3377316946187 331.4978464589959 797.1451892420296 326.79565214898093Q793.9773951805457 322.09345783896595 788.7554846573187 319.3216380351676L788.7554846573187 319.3216380351676Q787.7902974042103 321.57374162575377 786.9241037155233 323.97433556297193Q786.0579100268363 326.35018110908476 785.3649550758868 328.87451700182964L785.3649550758868 328.87451700182964Q779.2768508639726 327.1421296244557 775.1438695493805 326.52341984682215Q771.0108882347884 325.9294584602939 768.2143200398847 325.9294584602939L768.2143200398847 325.9294584602939Q762.7449256056041 325.9294584602939 757.1765376069022 327.7608394020893Q751.6081496082002 329.5674719527792 747.178187600344 333.0074983164218Q742.7234772013824 336.4475246800643 739.9021606153734 341.37245451002735Q737.0808440293645 346.27263594888507 737.0808440293645 352.4597337252206L737.0808440293645 352.4597337252206Q737.0808440293645 358.3745991993973 740.0753993531108 363.29952902936043Q743.0699546768572 368.19971046821814 747.9453877246096 372.38218856502095L747.9453877246096 372.38218856502095Q748.7373362399806 369.6846139345387 749.133310497666 366.91279413074034Q749.5045363642462 364.1162259358367 749.7025234930888 361.171167394301L749.7025234930888 361.171167394301Q756.1371051804778 364.1162259358367 761.0867834015462 365.25465192668247Q766.0364616226146 366.39307791752816 769.7982170706266 366.39307791752816L769.7982170706266 366.39307791752816Q775.539843807066 366.39307791752816 781.0092382413466 364.5122001935222Q786.5033810667325 362.6313224695162 790.809601119062 359.06755415034695Q795.1158211713915 355.5037858311777 797.7144022374524 350.4056172634772Q800.3377316946187 345.3321970868821 800.3377316946187 338.8976153994932ZM984.6884970383115 371.515994876334L984.6884970383115 371.515994876334Q984.5152583005741 378.74252507909387 981.6939417145651 384.43465503332254Q978.8726251285561 390.12678498755116 973.9476952985931 394.48250182209136Q969.0227654686299 398.83821865663157 962.365448261293 401.93176754479936Q955.7328794450614 405.00056804186175 947.9371362468786 406.93094254807846Q940.1413930486958 408.8365686631898 931.5784497262475 409.7522591340874Q923.0155064037991 410.66794960498504 914.3040727347187 410.66794960498504L914.3040727347187 410.66794960498504Q907.523013571855 410.66794960498504 900.7419544089913 410.14823339177286Q893.9361468550222 409.6285171785607 887.551061949844 408.71282670766306Q881.1659770446657 407.7971362367654 875.251111570489 406.43597472597156Q869.3362460963123 405.0995616062831 864.2875743108225 403.36717422890916L864.2875743108225 403.36717422890916L866.3664391636712 399.4321800431598Q863.3966322310301 400.3231221229521 860.3525801250731 401.3130577671658Q857.308528019116 402.3029934113795 854.264475913159 403.36717422890916L854.264475913159 403.36717422890916Q859.4863864363862 387.70144265922767 863.2728902755035 371.9862143073355Q867.0593941146208 356.2957343465486 869.0640137941535 340.11028656365494L869.0640137941535 340.11028656365494Q862.8026708445019 336.1010472045895 857.8282442323283 331.8443239344707Q852.8785660112599 327.5876006643519 849.6612751675653 323.4051225675491L849.6612751675653 323.4051225675491Q854.4377146508964 324.89002603386956 859.6348767830182 326.15219398024203Q864.8072905240347 327.4143619266145 870.2766849583153 328.35480078861747L870.2766849583153 328.35480078861747Q870.7221559982114 322.9596515276529 870.9448915181595 317.73774100442574Q871.1428786470022 312.5158304811986 871.1428786470022 307.21967478465535L871.1428786470022 307.21967478465535L871.1428786470022 304.3488614164357Q865.846722950459 306.08124879380966 860.6248124272319 308.0858684733423Q855.4029019040047 310.090488152875 850.5274688562523 312.5158304811986L850.5274688562523 312.5158304811986Q851.8391335848354 307.6403974334462 852.532088535785 303.03719668785254Q853.2250434867346 298.43399594225895 853.2250434867346 294.00403393440274L853.2250434867346 294.00403393440274Q853.2250434867346 286.431026256168 851.3194173716232 279.4519799644616Q849.3890428654066 272.4976820638605 845.9242681106587 265.9641068120502L845.9242681106587 265.9641068120502Q856.0216116816383 264.40495817241367 864.2875743108225 263.4150225282Q872.5535369400068 262.40033849288096 879.6315767961346 261.8063771063527Q886.7343650433677 261.18766732871916 893.1194499485459 260.94018341766576Q899.5045348537242 260.667951115507 905.7906261944811 260.667951115507L905.7906261944811 260.667951115507Q911.0867818910243 260.667951115507 917.867841053888 260.94018341766576Q924.6489002167517 261.18766732871916 931.9249272017223 262.0538610174061Q939.2009541866928 262.9200547060931 946.4522327805581 264.57819691015106Q953.7282597655286 266.23633911420893 960.1628414529175 269.10715248242866Q966.5974231403064 271.9779658506483 971.7203400991123 276.2099407296618Q976.8680054490234 280.41716721756995 979.7388188172431 286.3320326917467L979.7388188172431 286.3320326917467Q981.5701997590385 285.29260026532233 983.5253226563605 283.9066903634232Q985.4804455536824 282.49603207041866 987.3860716687938 281.03587699520347L987.3860716687938 281.03587699520347Q987.8315427086899 283.386974150211 987.9552846642167 285.73807130521845Q988.0790266197433 288.0644200691206 988.0790266197433 290.2422784863908L988.0790266197433 290.2422784863908Q988.0790266197433 297.0480860403598 986.470381197896 303.5569129010648Q984.8617357760489 310.090488152875 981.9414256256185 316.0795988003678Q979.0458638662935 322.09345783896595 974.9376309428068 327.5381038821412Q970.8541464104253 332.98274992531645 965.8054746249355 337.48695710648866L965.8054746249355 337.48695710648866Q970.6066624993719 340.28352530139233 973.8239533430664 343.79779683835085Q977.0412441867608 347.3368167664148 979.1696058218203 351.07382382332145Q981.2979674568797 354.81083088022814 982.4363934477254 358.3745991993973Q983.5748194385711 361.9383675185666 984.0450388695725 364.8091808867863Q984.5152583005741 367.67999425500597 984.6142518649955 369.5113751968013Q984.6884970383115 371.3427561385966 984.6884970383115 371.515994876334ZM920.0456994711582 356.1967407821273L920.0456994711582 356.1967407821273Q913.6111177837691 356.1967407821273 907.6962523095924 355.05831479128153L907.6962523095924 355.05831479128153Q907.6962523095924 359.6862639279805 907.7704974829085 364.1162259358367Q907.8694910473298 368.5461879436929 908.0427297850672 373.0751435159705L908.0427297850672 373.0751435159705Q912.4726917929235 374.46105341786966 916.4819311519889 374.9560212399765Q920.4911705110543 375.426240670978 924.1291840035395 375.426240670978L924.1291840035395 375.426240670978Q928.6581395758171 375.426240670978 933.6573145790962 374.33731146234294Q938.6564895823753 373.2483822537079 942.8884644613888 370.7735431431737Q947.0956909492969 368.29870403263953 949.8427623619899 364.2894646735741Q952.5898337746829 360.2802253145087 952.5898337746829 354.36535984033196L952.5898337746829 354.36535984033196Q952.5898337746829 352.90520476511676 952.3176014725242 351.24706256105884Q952.0701175614707 349.5889203570009 951.5504013482586 347.856532979627L951.5504013482586 347.856532979627Q944.1506324077612 351.8410239475871 936.1816504718412 354.0188823648572Q928.2374169270263 356.1967407821273 920.0456994711582 356.1967407821273ZM908.6614395627007 295.81066648509267L908.389207260542 295.81066648509267Q908.1169749583833 304.42310658975174 907.9932330028565 312.91180473888403Q907.8694910473298 321.4005028880164 907.6962523095924 330.0129429926754L907.6962523095924 330.0129429926754Q913.9575952592439 329.04775573956704 918.956770262523 326.9193941045076Q923.9559452658021 324.7910324694482 927.6929523227087 321.1282705858576Q931.4547077707208 317.4902570933723 933.7563081435176 312.1693530057238Q936.0579085163143 306.87319730918057 936.9241022050013 299.5724219331047L936.9241022050013 299.5724219331047L944.7693421853947 298.26075720452155Q941.0075867373828 296.08289878725145 936.4043859917891 295.0434663608271Q931.8011852461956 294.00403393440274 926.406035985231 294.00403393440274L926.406035985231 294.00403393440274Q924.1291840035395 294.00403393440274 922.4462934083763 294.07827910771874Q920.7386544221077 294.17727267214013 918.882525089207 294.37525980098286Q917.001647365201 294.5979953209309 914.6010534279828 294.9444727964057Q912.22520788187 295.2909502718805 908.6614395627007 295.81066648509267L908.6614395627007 295.81066648509267ZM1047.5989072280909 290.41551722412817L1047.5989072280909 290.41551722412817Q1045.074571335346 304.9428228029639 1043.8619001711843 319.7918574661691Q1042.6492290070225 334.616143738269 1042.6492290070225 349.7621590947383L1042.6492290070225 349.7621590947383Q1042.6492290070225 361.171167394301 1043.2926871757613 372.38218856502095Q1043.9361453445003 383.61795812684625 1045.421048810821 394.48250182209136L1045.421048810821 394.48250182209136Q1042.2037579671264 394.48250182209136 1038.8874735590107 394.23501791103797Q1035.5959375420002 393.9627856088792 1031.5866981829345 393.9627856088792L1031.5866981829345 393.9627856088792Q1024.459161544596 393.9627856088792 1016.8861538663615 394.82897929756615Q1009.3131461881268 395.6951729862531 1000.7007060834677 397.3533151903111L1000.7007060834677 397.3533151903111Q1003.1507968028967 385.07811320206145 1004.6109518781119 372.20894982728356Q1006.0958553444324 359.3397864525057 1006.0958553444324 346.0251520378317L1006.0958553444324 346.0251520378317Q1006.0958553444324 334.8883760404278 1004.9574293535867 323.80109682523454Q1003.8437517538463 312.68906921893597 1001.3936610344174 301.6512867859534L1001.3936610344174 301.6512867859534Q1007.1352877708567 301.0325770083199 1012.5304370318214 300.04264136410615Q1017.9255862927859 299.0279573287872 1023.4939742914877 297.642047426888Q1029.0623622901899 296.25613752498884 1034.9772277643665 294.4742533654042Q1040.892093238543 292.6923692058196 1047.5989072280909 290.41551722412817Z " fill="#ef6c00" transform="matrix(0.8516201574499298,0,0,0.8516201574499298,-17.156354768095383,14.13840749697222)"/></g></svg>